<svg width="634" height="620" viewBox="0 0 634 620" fill="none" xmlns="http://www.w3.org/2000/svg">
<path d="M216.667 602.86H50.0001C31.5907 602.86 16.6667 587.936 16.6667 569.526V316.666C16.6667 307.826 20.1788 299.346 26.4298 293.096L293.097 26.4299C306.113 13.4122 327.22 13.4122 340.237 26.4299L606.903 293.096C613.153 299.346 616.667 307.826 616.667 316.666V569.526C616.667 587.936 601.743 602.86 583.333 602.86H416.667M216.667 602.86H416.667M216.667 602.86V402.86C216.667 384.45 231.591 369.526 250 369.526H383.333C401.743 369.526 416.667 384.45 416.667 402.86V602.86" stroke="black" stroke-width="33.3333" stroke-linejoin="round"/>
</svg>
